# xmcd
#
# Track frame offsets:
#	150
#	14519
#	32538
#	45230
#	60771
#	80438
#	101588
#	122548
#	146233
#	170251
#	191556
#	212442
#	233326
#	254114
#	277231
#	302715
#	318944
#	340670
#	366160
#	386442
#
# Disc length: 5395 seconds
#
# Revision: 0
# Processed by: cddbd v1.5.2PL0 Copyright (c) Steve Scherf et al.
# Submitted via: EasyCDDAExtractor 8.1.2.3
#
DISCID=11151114
DTITLE=Eminem - The return of slim shady
DYEAR=1900
DGENRE=Rap
TTITLE0=I'm Gone
TTITLE1=HellBound (Remake) [clear]
TTITLE2=We Came To Party
TTITLE3=Riddle
TTITLE4=Lean Back (Remix)
TTITLE5=Drunkin Life
TTITLE6=Bump Heads
TTITLE7=Doe Ray Me
TTITLE8=Hail Mary
TTITLE9=Go To Sleep (Murder Inc Diss)
TTITLE10=9-11
TTITLE11=Don't Approach Me (Ft. Xzbit)
TTITLE12=Beef (Ft. Xzbit)
TTITLE13=Stimulate
TTITLE14=Da Renegade
TTITLE15=The Sauce (Benzino Diss)
TTITLE16=Nail In The Coffin
TTITLE17=Pussy Girls
TTITLE18=Quit It (Whitey Ford Diss)
TTITLE19=Defence
EXTD=
EXTT0=
EXTT1=
EXTT2=
EXTT3=
EXTT4=
EXTT5=
EXTT6=
EXTT7=
EXTT8=
EXTT9=
EXTT10=
EXTT11=
EXTT12=
EXTT13=
EXTT14=
EXTT15=
EXTT16=
EXTT17=
EXTT18=
EXTT19=
PLAYORDER=
